<svg width="197" height="113" viewBox="0 0 197 113" fill="none" xmlns="http://www.w3.org/2000/svg">
<path d="M57.1702 36.2875L60.6202 32.8275L61.8702 31.5775C62.3902 31.0575 62.3902 30.1975 61.8702 29.6775L32.5902 0.3975C32.0602 -0.1325 31.2102 -0.1325 30.6902 0.3975L1.39023 29.6775C0.870234 30.1975 0.870234 31.0575 1.39023 31.5775L6.09023 36.2775L2.63023 39.7275L1.38023 40.9775C0.860234 41.4975 0.860234 42.3575 1.38023 42.8775L30.6702 72.1675C31.1902 72.6875 32.0502 72.6875 32.5702 72.1675L61.8602 42.8775C62.3802 42.3475 62.3802 41.4975 61.8602 40.9775L57.1602 36.2775L57.1702 36.2875ZM4.84023 30.6375L31.6302 3.8375L58.4302 30.6375L52.7802 36.2875L31.6402 57.4275L10.4902 36.2875L4.84023 30.6375V30.6375ZM31.6402 68.7375L4.84023 41.9375L8.30023 38.4875L30.6902 60.8775C31.2102 61.4075 32.0702 61.4075 32.5902 60.8775L33.8402 59.6275L54.9802 38.4875L58.4302 41.9375L31.6302 68.7375H31.6402Z" fill="#E66353"/>
<path d="M50.3502 29.6776L49.1002 28.4276L33.8302 13.1576L32.5802 11.9076C32.0502 11.3876 31.2002 11.3876 30.6802 11.9076L29.4302 13.1576L14.1602 28.4276L12.9102 29.6776C12.3802 30.1976 12.3802 31.0576 12.9102 31.5776L14.1602 32.8276L29.4302 48.0976L30.6802 49.3476C31.2002 49.8676 32.0602 49.8676 32.5802 49.3476L33.8302 48.0976L49.1002 32.8276L49.2402 32.6876L50.3502 31.5776C50.8702 31.0576 50.8702 30.1976 50.3502 29.6776V29.6776ZM31.6402 45.8976L16.3702 30.6276L31.6402 15.3576L46.9102 30.6276L31.6402 45.8976V45.8976Z" fill="#E66353"/>
<path d="M38.8198 29.6776L32.5898 23.4476C32.0698 22.9276 31.2098 22.9276 30.6898 23.4476L24.4598 29.6776C23.9398 30.1976 23.9398 31.0576 24.4598 31.5776L30.6898 37.8076C31.2098 38.3276 32.0698 38.3276 32.5898 37.8076L38.8198 31.5776C39.3398 31.0576 39.3398 30.1976 38.8198 29.6776V29.6776ZM31.6398 34.3676L27.8998 30.6276L31.6398 26.8876L35.3798 30.6276L31.6398 34.3676Z" fill="#E66353"/>
<path d="M8.60984 102.048H21.9498V104.888H5.33984V81.9976H21.4898V84.8376H8.60984V102.038V102.048ZM8.31984 91.8776H20.0898V94.6576H8.31984V91.8776Z" fill="#0E1A44"/>
<path d="M27.25 104.888V81.9976H36.9C39.34 81.9976 41.49 82.4776 43.36 83.4376C45.22 84.3976 46.67 85.7376 47.71 87.4576C48.75 89.1776 49.26 91.1776 49.26 93.4376C49.26 95.6976 48.74 97.6976 47.71 99.4176C46.68 101.138 45.23 102.478 43.36 103.438C41.5 104.398 39.34 104.878 36.9 104.878H27.25V104.888ZM30.52 102.048H36.7C38.6 102.048 40.24 101.688 41.62 100.968C43 100.248 44.08 99.2376 44.84 97.9476C45.6 96.6476 45.98 95.1576 45.98 93.4476C45.98 91.7376 45.6 90.2176 44.84 88.9376C44.08 87.6476 43 86.6476 41.62 85.9276C40.24 85.2076 38.6 84.8476 36.7 84.8476H30.52V102.048V102.048Z" fill="#0E1A44"/>
<path d="M63.7401 105.158C60.7301 105.158 58.3701 104.298 56.6401 102.578C54.9101 100.858 54.0601 98.3376 54.0601 95.0276V82.0176H57.3301V94.8976C57.3301 97.4476 57.8901 99.3076 59.0101 100.488C60.1301 101.668 61.7201 102.258 63.7701 102.258C65.8201 102.258 67.4401 101.668 68.5601 100.488C69.6801 99.3076 70.2401 97.4476 70.2401 94.8976V82.0176H73.4101V95.0276C73.4101 98.3376 72.5501 100.858 70.8401 102.578C69.1301 104.298 66.7601 105.158 63.7301 105.158H63.7401Z" fill="#0E1A44"/>
<path d="M90.35 105.157C88.61 105.157 87 104.867 85.53 104.287C84.06 103.707 82.78 102.887 81.7 101.837C80.62 100.777 79.78 99.5473 79.17 98.1273C78.56 96.7073 78.25 95.1473 78.25 93.4473C78.25 91.7473 78.55 90.1873 79.17 88.7673C79.78 87.3473 80.63 86.1173 81.72 85.0573C82.81 83.9973 84.09 83.1873 85.56 82.6073C87.03 82.0273 88.64 81.7373 90.38 81.7373C92.12 81.7373 93.77 82.0373 95.27 82.6373C96.77 83.2373 98.03 84.1273 99.08 85.2973L96.96 87.3573C96.09 86.4373 95.11 85.7573 94.02 85.3173C92.93 84.8673 91.76 84.6473 90.52 84.6473C89.28 84.6473 88.04 84.8673 86.94 85.2973C85.84 85.7373 84.89 86.3473 84.08 87.1273C83.27 87.9173 82.65 88.8473 82.2 89.9273C81.75 91.0073 81.53 92.1773 81.53 93.4373C81.53 94.6973 81.75 95.8773 82.2 96.9473C82.65 98.0273 83.27 98.9573 84.08 99.7473C84.89 100.527 85.84 101.137 86.94 101.577C88.04 102.017 89.23 102.227 90.52 102.227C91.81 102.227 92.93 102.007 94.02 101.557C95.11 101.107 96.09 100.417 96.96 99.4773L99.08 101.537C98.03 102.717 96.76 103.607 95.27 104.217C93.78 104.827 92.14 105.137 90.35 105.137V105.157Z" fill="#0E1A44"/>
<path d="M99.73 104.888L110.09 81.9976H113.33L123.73 104.888H120.3L111.05 83.8276H112.36L103.11 104.888H99.74H99.73ZM104.14 99.1676L105.02 96.5476H117.9L118.85 99.1676H104.14V99.1676Z" fill="#0E1A44"/>
<path d="M137.04 105.157C135.3 105.157 133.69 104.867 132.22 104.287C130.75 103.707 129.47 102.887 128.39 101.837C127.31 100.777 126.47 99.5473 125.86 98.1273C125.25 96.7073 124.94 95.1473 124.94 93.4473C124.94 91.7473 125.24 90.1873 125.86 88.7673C126.47 87.3473 127.32 86.1173 128.41 85.0573C129.5 83.9973 130.78 83.1873 132.25 82.6073C133.72 82.0273 135.33 81.7373 137.07 81.7373C138.81 81.7373 140.46 82.0373 141.96 82.6373C143.46 83.2373 144.72 84.1273 145.77 85.2973L143.65 87.3573C142.78 86.4373 141.8 85.7573 140.71 85.3173C139.62 84.8673 138.45 84.6473 137.21 84.6473C135.97 84.6473 134.73 84.8673 133.63 85.2973C132.53 85.7373 131.58 86.3473 130.77 87.1273C129.96 87.9173 129.34 88.8473 128.89 89.9273C128.44 91.0073 128.22 92.1773 128.22 93.4373C128.22 94.6973 128.44 95.8773 128.89 96.9473C129.34 98.0273 129.96 98.9573 130.77 99.7473C131.58 100.527 132.53 101.137 133.63 101.577C134.73 102.017 135.92 102.227 137.21 102.227C138.5 102.227 139.62 102.007 140.71 101.557C141.8 101.107 142.78 100.417 143.65 99.4773L145.77 101.537C144.72 102.717 143.45 103.607 141.96 104.217C140.47 104.827 138.83 105.137 137.04 105.137V105.157ZM135.7 112.217C135.13 112.217 134.61 112.157 134.13 112.037C133.65 111.917 133.2 111.737 132.79 111.497L133.48 109.897C133.83 110.097 134.18 110.237 134.54 110.327C134.9 110.417 135.29 110.457 135.7 110.457C136.33 110.457 136.8 110.337 137.09 110.117C137.38 109.897 137.53 109.567 137.53 109.157C137.53 108.767 137.38 108.457 137.09 108.227C136.8 107.997 136.32 107.887 135.67 107.887H134.79L135.61 104.687H137.41L136.92 106.547C137.86 106.637 138.57 106.927 139.04 107.427C139.52 107.927 139.76 108.537 139.76 109.257C139.76 110.177 139.39 110.897 138.65 111.427C137.91 111.957 136.93 112.227 135.71 112.227L135.7 112.217Z" fill="#0E1A44"/>
<path d="M146.42 104.887L156.78 81.9974H160.02L170.42 104.887H166.99L157.74 83.8274H159.05L149.8 104.887H146.43H146.42ZM150.83 99.1674L151.71 96.5474H164.59L165.54 99.1674H150.83V99.1674ZM160.7 80.0374C160.18 80.0374 159.71 79.9274 159.31 79.7074C158.91 79.4874 158.54 79.2374 158.22 78.9374C157.89 78.6474 157.58 78.3874 157.27 78.1674C156.96 77.9474 156.66 77.8374 156.35 77.8374C155.87 77.8374 155.48 78.0174 155.19 78.3774C154.9 78.7374 154.73 79.2374 154.68 79.8674H152.91C152.95 78.6474 153.26 77.6774 153.83 76.9574C154.4 76.2374 155.16 75.8774 156.12 75.8774C156.64 75.8774 157.11 75.9874 157.53 76.2174C157.94 76.4474 158.31 76.7074 158.64 76.9974C158.97 77.2874 159.28 77.5474 159.57 77.7674C159.86 77.9874 160.16 78.0974 160.47 78.0974C160.95 78.0974 161.34 77.9274 161.65 77.5774C161.96 77.2274 162.12 76.7474 162.14 76.1374H163.91C163.89 77.2974 163.59 78.2274 163.01 78.9474C162.43 79.6674 161.66 80.0274 160.7 80.0274V80.0374Z" fill="#0E1A44"/>
<path d="M183.82 105.157C182.08 105.157 180.46 104.867 178.96 104.277C177.46 103.687 176.18 102.867 175.09 101.807C174 100.747 173.15 99.5173 172.54 98.0973C171.93 96.6773 171.62 95.1373 171.62 93.4573C171.62 91.7773 171.92 90.2273 172.54 88.8173C173.16 87.4073 174 86.1673 175.09 85.1073C176.18 84.0473 177.47 83.2273 178.95 82.6373C180.43 82.0473 182.06 81.7573 183.82 81.7573C185.58 81.7573 187.17 82.0473 188.64 82.6273C190.11 83.2073 191.4 84.0273 192.5 85.0773C193.6 86.1373 194.45 87.3673 195.05 88.7873C195.65 90.2073 195.95 91.7673 195.95 93.4673C195.95 95.1673 195.65 96.7273 195.05 98.1473C194.45 99.5673 193.6 100.797 192.5 101.857C191.4 102.917 190.11 103.727 188.64 104.307C187.17 104.887 185.56 105.177 183.82 105.177V105.157ZM183.82 102.247C185.08 102.247 186.26 102.027 187.33 101.597C188.41 101.157 189.35 100.547 190.14 99.7473C190.93 98.9473 191.56 98.0173 192 96.9473C192.45 95.8773 192.67 94.7173 192.67 93.4473C192.67 92.1773 192.45 91.0173 192 89.9473C191.55 88.8773 190.93 87.9473 190.14 87.1473C189.34 86.3573 188.41 85.7373 187.33 85.2973C186.25 84.8573 185.08 84.6473 183.82 84.6473C182.56 84.6473 181.35 84.8673 180.27 85.2973C179.19 85.7373 178.25 86.3473 177.44 87.1473C176.63 87.9473 176.01 88.8773 175.56 89.9473C175.11 91.0173 174.89 92.1773 174.89 93.4473C174.89 94.7173 175.11 95.8773 175.56 96.9473C176.01 98.0173 176.63 98.9473 177.44 99.7473C178.25 100.547 179.19 101.157 180.27 101.597C181.35 102.037 182.53 102.247 183.82 102.247Z" fill="#0E1A44"/>
<path d="M196.21 42.5374V56.5174H186.23V71.7174H169.8V56.5174H139.49V42.5374L169.8 0.297363H186.23V42.5374H196.21ZM156.32 42.5374H169.79V22.2274L156.32 42.5274V42.5374Z" fill="#0E1A44"/>
<path d="M128.2 9.49754C123.7 5.40754 117.88 2.44754 111.07 0.96754C95.7799 -2.34246 80.5099 3.84754 72.6999 16.9475C72.6399 17.0375 72.5899 17.1275 72.5299 17.2275C72.4299 17.4075 72.3199 17.5775 72.2199 17.7575C69.1499 22.9775 67.3799 29.1875 67.3799 36.0975C67.3799 57.1775 83.5199 71.7275 103.42 71.7275C122.23 71.7275 137.38 56.9775 134.01 33.4275H111.29L101.75 46.8875H119.36C117.28 54.2075 111.84 56.7875 103.42 56.7875C91.9299 56.7875 84.0099 48.0775 84.0099 36.1075C84.0099 24.1375 92.2299 15.4275 104.41 15.4275C106.66 15.4275 108.77 15.7275 110.74 16.2975C110.92 16.3475 111.09 16.4075 111.26 16.4675C111.53 16.5575 111.81 16.6375 112.08 16.7375C113.41 17.2275 114.65 17.8375 115.8 18.5375C115.95 18.6275 116.1 18.7075 116.25 18.8075C117.5 19.6075 118.65 20.5275 119.68 21.5575L128.2 9.52754V9.49754Z" fill="#0E1A44"/>
</svg>
